#!OML:ASF E:/inclinewalkrobotboard/Project1/Captureday1/Session1/subject1.ASF
:FULLY-SPECIFIED
:DEGREES
113
root 0 0 0 -1.6731606835935473 -0.037850974301821605 2.430625474261802
lowerback 9.597361472828377 -1.161791649405017 -4.031272410144416
upperback -0.17367465761071244 -1.9387456395518707 1.2744343220115046
thorax -5.437263685583879 -0.8606353800078381 3.855346506470375
lowerneck -17.94482884618546 -2.631445292757133 -2.6785668154363975
upperneck 17.243273842457267 -3.023070551264485 0.3947406232426218
head 8.312048197361749 -1.5799246293345521 0.17711796925403228
rclavicle 3.261158101530643E-15 5.350363200093068E-16
rhumerus -32.52020614814506 -26.688651766964337 -79.12294837988162
rradius 20.61964605901592
rwrist 11.098166384875242
rhand -19.231639089113663 24.69406115570255
rfingers 7.12502000000001
rthumb 7.101481122239168 -5.326860698079326
lclavicle 7.059504445276443E-15 1.815032161328895E-15
lhumerus -27.342499845229483 -3.9422510181510617 81.68080988932667
lradius 31.809391649839544
lwrist 8.406355275650563
lhand -28.427020186205986 25.197436007392024
lfingers 7.125020000000018
lthumb -1.8247803989002591 55.21150609806321
rfemur -30.252660250473966 3.341991698961192 20.1366280501554
rtibia 41.12293992192162
rfoot -4.003709003709149 -9.795051885480797
rtoes 3.4597509299696627
lfemur 12.003692864215452 -5.977153986793812 -27.97407711454286
ltibia 18.577838629446454
lfoot -14.448427933438376 -1.653348520029866
ltoes -3.8555508680617514
114
root 0 0 0 -2.0830299238373104 0.3437513883577328 1.607427811594007
lowerback 8.989933409269874 -1.327652023625224 -3.3616202112762537
upperback -0.38052729405927055 -2.0465221344764988 1.6727376441258355
thorax -5.323542494047827 -0.9227687902635986 3.919793695722896
lowerneck -18.357253111693066 -2.616200061435585 -2.6016416909657187
upperneck 19.5428390663185 -3.0176630178684047 0.032925085483230365
head 9.128050237321254 -1.5749555553819523 0.016201451584725857
rclavicle 3.067614663561505E-15 1.0057177182772028E-15
rhumerus -33.01531130050452 -27.225392698008278 -79.05968285743555
rradius 19.99691184506294
rwrist 10.482982229515205
rhand -19.236979031520328 24.61456346741539
rfingers 7.12502000000001
rthumb 7.098350331844506 -5.40410111751957
lclavicle 7.360041210145076E-15 2.3788019769016474E-15
lhumerus -27.25963145915724 -4.203297515734633 82.13354505291501
lradius 31.841771194119886
lwrist 8.509811692697262
lhand -28.399293612564584 25.228829668630333
lfingers 7.125020000000019
lthumb -1.797335132015677 55.23645443508916
rfemur -29.296462513352726 4.483456545445722 21.947167399319987
rtibia 36.28357841599475
rfoot -7.315974883561947 -10.550841257936016
rtoes 1.7208138919873892
lfemur 12.36040516591327 -5.926776285891256 -27.271679394059362
ltibia 20.331674326475284
lfoot -13.427013921802718 -2.3730914389928004
ltoes -5.875149201355878
115
root 0 0 0 -2.6719254856404984 0.31265354740909546 0.5744209793788864
lowerback 9.684871024453908 -1.4377085572676087 -2.3394785310563684
upperback 0.04934417370581354 -2.0502687646246 2.067036225543177
thorax -5.269267219503447 -0.9411549563847801 3.761665998868652
lowerneck -17.952627597681396 -2.5769838877876463 -2.3406355187368915
upperneck 19.920345882479985 -2.89718397354804 -0.4455804707930391
head 9.123165265153554 -1.554230182231463 -0.17670826987288413
rclavicle 1.2604546430904018E-15 1.1466287715995479E-15
rhumerus -33.45375265547971 -27.38317354675399 -79.13486018127742
rradius 19.27356287370619
rwrist 10.359016087464184
rhand -19.077840002320883 24.63174999411151
rfingers 7.12502000000001
rthumb 7.253469952816063 -5.358025559416372
lclavicle 4.864414988729423E-15 2.5252124686073586E-15
lhumerus -27.737412356053916 -3.948307916700755 82.48708994109313
lradius 31.424919144658553
lwrist 8.360207940420171
lhand -28.31260229039469 25.43479593135022
lfingers 7.125020000000023
lthumb -1.7063822411179803 55.44228939677203
rfemur -25.256146502928345 5.267667771044868 23.621790588516966
rtibia 32.8564233431262
rfoot -9.26860085993233 -9.893461113861694
rtoes 1.2081288261309937
lfemur 11.327791545173895 -5.056064112840098 -25.37410374156144
ltibia 27.56813499818098
lfoot -9.688045841318182 -5.041254249127311
ltoes -8.879489789073652
116
root 0 0 0 -2.9462342624455236 0.12836592182790874 -0.44069762846178673
lowerback 10.941801037825769 -1.5480419966805798 -1.3871270958163262
upperback 0.45648465088941625 -2.065746211070868 2.350123873628576
thorax -5.561461385738576 -0.9719604838293965 3.5091617676793603
lowerneck -17.87162191108632 -2.648526139120751 -2.142264193088709
upperneck 16.91640125888463 -2.848719622293671 -0.8280774537093196
head 8.091242258146602 -1.6016689065507048 -0.30390525081451464
rclavicle 5.589089046366454E-16 5.118227871853359E-16
rhumerus -33.357482769652165 -27.293800417847955 -79.14778322924903
rradius 19.20980136434084
rwrist 10.75002872013727
rhand -18.983623427324023 24.622920787760272
rfingers 7.125020000000011
rthumb 7.342818888001202 -5.36346168275896
lclavicle 3.265082283081668E-15 1.697677558095779E-15
lhumerus -28.0612326667426 -3.686394617535296 82.80636565777927
lradius 30.987905760030607
lwrist 8.168866188671617
lhand -28.245251844553103 25.557254526973377
lfingers 7.125020000000028
lthumb -1.6345241862525484 55.568045986866935
rfemur -20.677081425986028 5.788279657981624 25.827924649713502
rtibia 33.07452171654675
rfoot -9.703525463120226 -8.531700202562298
rtoes 2.9425402982920303
lfemur 4.610521264660744 -3.1867601817490736 -22.274466587298456
ltibia 41.3790549320167
lfoot -0.8395226375527045 -10.438546011812488
ltoes -4.476577079456039
